<mxfile host="app.diagrams.net" agent="Mozilla/5.0 (X11; Linux x86_64) AppleWebKit/537.36 (KHTML, like Gecko) Chrome/135.0.0.0 Safari/537.36" version="26.2.14">
  <diagram name="페이지-1" id="oXpLMr-BuSlWFVDlcdsL">
    <mxGraphModel dx="1426" dy="759" grid="1" gridSize="10" guides="1" tooltips="1" connect="1" arrows="1" fold="1" page="1" pageScale="1" pageWidth="827" pageHeight="1169" math="0" shadow="0">
      <root>
        <mxCell id="0" />
        <mxCell id="1" parent="0" />
        <mxCell id="aUuMcmO4eRCslv74DEVV-3" value="" style="edgeStyle=orthogonalEdgeStyle;rounded=0;orthogonalLoop=1;jettySize=auto;html=1;" edge="1" parent="1" source="aUuMcmO4eRCslv74DEVV-1" target="aUuMcmO4eRCslv74DEVV-2">
          <mxGeometry relative="1" as="geometry" />
        </mxCell>
        <mxCell id="aUuMcmO4eRCslv74DEVV-1" value="" style="strokeWidth=2;html=1;shape=mxgraph.flowchart.start_2;whiteSpace=wrap;" vertex="1" parent="1">
          <mxGeometry x="389" y="20" width="50" height="50" as="geometry" />
        </mxCell>
        <mxCell id="aUuMcmO4eRCslv74DEVV-5" value="" style="edgeStyle=orthogonalEdgeStyle;rounded=0;orthogonalLoop=1;jettySize=auto;html=1;" edge="1" parent="1" source="aUuMcmO4eRCslv74DEVV-2" target="aUuMcmO4eRCslv74DEVV-4">
          <mxGeometry relative="1" as="geometry" />
        </mxCell>
        <mxCell id="aUuMcmO4eRCslv74DEVV-2" value="motor&lt;div&gt;LED&lt;/div&gt;&lt;div&gt;ultrasonic&lt;/div&gt;&lt;div&gt;RFID&lt;/div&gt;&lt;div&gt;CDS&lt;/div&gt;" style="whiteSpace=wrap;html=1;strokeWidth=2;" vertex="1" parent="1">
          <mxGeometry x="354" y="145" width="120" height="175" as="geometry" />
        </mxCell>
        <mxCell id="aUuMcmO4eRCslv74DEVV-4" value="" style="whiteSpace=wrap;html=1;strokeWidth=2;" vertex="1" parent="1">
          <mxGeometry x="354" y="420" width="120" height="60" as="geometry" />
        </mxCell>
      </root>
    </mxGraphModel>
  </diagram>
</mxfile>
